<svg width="620" height="400" viewBox="0 0 620 400" fill="none" xmlns="http://www.w3.org/2000/svg">
<path d="M200.81 0H213.719L225.194 7.19424L251.013 24.4604L273.962 35.9712L291.175 41.7266L301.215 43.1655H314.125L325.599 41.7266H338.509L351.418 46.0432L368.63 57.554L378.671 69.0647L380.105 73.3813L407.358 74.8201L431.742 79.1367L457.56 87.7698L476.207 97.8417L491.985 109.353L506.329 122.302L520.672 141.007L535.016 162.59L546.491 181.295L556.531 197.122L569.44 217.266L580.915 234.532L588.087 241.727L609.602 250.36L618.209 260.432L619.643 274.82L613.905 289.209L600.996 303.597L589.521 313.669L575.178 323.741L545.056 341.007L509.197 358.273L467.601 374.101L433.176 385.612L410.227 391.367L362.893 397.122L341.377 398.561L288.306 400L253.881 398.561L230.932 395.683L209.416 391.367L186.467 379.856L176.426 368.345L174.992 365.468V351.079L179.295 342.446L183.598 335.252V319.424L177.86 305.036L170.689 283.453L169.254 273.381V254.676L173.557 235.971L174.992 233.094H162.083L136.264 227.338L117.617 220.144L91.7989 205.755L86.0615 198.561L84.6271 195.683V176.978L88.9302 169.784L93.2333 166.906L109.011 168.345L87.4959 159.712L63.1118 148.201L43.0308 135.252L28.6872 123.741L17.2123 112.23L4.30308 92.0863L0 79.1367V64.7482L5.73743 48.9209L11.4749 40.2878L20.081 34.5324H32.9902L41.5964 38.8489L61.6774 53.2374L84.6271 66.187L100.405 73.3813L111.88 76.259L131.961 77.6978L143.436 76.259H160.648L180.729 86.3309L195.073 99.2806L205.113 113.669L216.588 135.252L222.326 143.885L228.063 141.007L239.538 129.496L249.578 120.863H252.447L248.144 116.547L226.629 103.597L212.285 92.0863L202.245 83.4532L189.335 66.187L182.164 51.7986L180.729 47.482V30.2158L185.032 15.8273L193.638 4.31655L200.81 0Z" fill="white"/>
<path d="M200.81 0H213.719L225.194 7.19424L251.013 24.4604L273.962 35.9712L291.175 41.7266L301.215 43.1655H314.125L325.599 41.7266H338.509L351.418 46.0432L368.63 57.554L378.671 69.0648L380.105 73.3813L407.358 74.8201L431.742 79.1367L457.56 87.7698L476.207 97.8417L491.985 109.353L506.329 122.302L520.672 141.007L535.016 162.59L546.491 181.295L556.531 197.122L569.44 217.266L580.915 234.532L588.087 241.727L609.602 250.36L618.209 260.432L619.643 274.82L613.905 289.209L600.996 303.597L589.521 313.669L575.178 323.741L545.056 341.007L509.197 358.273L467.601 374.101L433.176 385.612L410.227 391.367L362.893 397.122L341.377 398.561L288.306 400L253.881 398.561L230.932 395.683L209.416 391.367L186.467 379.856L176.426 368.345L174.992 365.468V351.079L179.295 342.446L183.598 335.252V319.424L177.86 305.036L170.689 283.453L169.254 273.381V254.676L173.557 235.971L174.992 233.094H162.083L136.264 227.338L117.617 220.144L91.7989 205.755L86.0615 198.561L84.6272 195.683V176.978L88.9302 169.784L93.2333 166.906L109.011 168.345L87.4959 159.712L63.1118 148.201L43.0308 135.252L28.6872 123.741L17.2123 112.23L4.30308 92.0863L0 79.1367V64.7482L5.73743 48.9209L11.4749 40.2878L20.081 34.5324H32.9902L41.5964 38.8489L61.6774 53.2374L84.6272 66.1871L100.405 73.3813L111.88 76.259L131.961 77.6978L143.436 76.259H160.648L180.729 86.3309L195.073 99.2806L205.113 113.669L216.588 135.252L222.326 143.885L228.063 141.007L239.538 129.496L249.578 120.863H252.447L248.144 116.547L226.629 103.597L212.285 92.0863L202.245 83.4532L189.335 66.1871L182.164 51.7986L180.729 47.482V30.2158L185.032 15.8273L193.638 4.31655L200.81 0ZM372.933 89.2086L347.115 92.0863L321.296 97.8417L295.478 109.353L273.962 122.302L253.881 138.13L240.972 149.64L233.8 159.712L245.275 174.101L262.488 189.928L281.134 201.439L292.609 207.194L295.478 212.95L296.912 224.46L294.043 234.532L288.306 238.849L281.134 240.288L268.225 238.849L256.75 254.676L243.841 266.187H232.366L228.063 263.309L225.194 251.799L209.416 257.554L200.81 258.993H185.032V276.259L193.638 302.158L199.376 316.547V338.13L193.638 349.64L190.77 353.957V362.59L197.941 368.345L210.851 374.101L233.8 379.856L263.922 382.734H327.034L374.368 379.856L417.398 372.662L443.217 365.468L483.379 351.079L516.369 336.691L540.753 325.18L568.006 309.353L586.653 294.964L598.127 283.453L603.865 273.381L602.431 264.748L580.915 256.115L569.44 246.043L550.794 217.266L533.581 189.928L523.541 174.101L506.329 148.201L494.854 133.813L481.944 120.863L461.863 107.914L447.52 100.719L424.57 93.5252L410.227 90.6475L394.449 89.2086H372.933Z" fill="#15171B"/>
<path d="M16.0126 46.9342C18.618 44.3238 22.1547 42.8569 25.8428 42.8569C28.646 42.8569 31.3836 43.7052 33.6957 45.2902L57.4631 61.5831L77.6473 72.9585C79.5242 74.0162 81.4796 74.9279 83.4963 75.6857L99.3973 81.6599C102.105 82.6774 104.912 83.4124 107.771 83.8531L117.484 85.3504C120.592 85.8294 123.744 85.9579 126.881 85.7334L142.289 84.6307H148.172C154.703 84.6307 161.145 86.1539 166.984 89.0792L167.219 89.1967C170.71 90.9458 173.941 93.1732 176.817 95.8148L185.244 103.554C188.222 106.289 190.789 109.44 192.867 112.909L198.361 122.083L212.738 146.571L229.991 169.619L243.491 184.375C245.032 186.059 246.707 187.614 248.5 189.025L263.086 200.508C264.981 202 267.001 203.326 269.123 204.471L283.686 212.327C284.308 212.663 284.878 213.087 285.378 213.588C286.737 214.949 287.5 216.794 287.5 218.718V225.472C287.5 226.624 287.159 227.749 286.522 228.708C285.35 230.469 283.318 231.459 281.21 231.296L274.157 230.753C268.938 230.35 263.805 232.252 260.108 235.956L258.745 237.321L248.771 249.813C247.755 251.085 246.614 252.252 245.364 253.295L239.395 258.279C238.892 258.698 238.258 258.928 237.603 258.928C235.876 258.928 234.562 257.378 234.845 255.674L235.579 251.261C235.687 250.614 235.89 249.987 236.183 249.401L240.868 240.013C241.279 239.19 241.492 238.283 241.492 237.363V236.134C241.492 233.022 238.645 230.689 235.595 231.301C234.749 231.47 233.962 231.859 233.314 232.427L226.536 238.369C224.057 240.543 221.31 242.39 218.362 243.867L210.725 247.693C209.199 248.457 207.572 249 205.893 249.306L195.957 251.116C193.974 251.477 191.99 250.485 191.09 248.681C190.27 247.037 190.523 245.061 191.732 243.677L199.798 234.44L206.828 225.049C207.848 223.687 208.267 221.967 207.987 220.288C207.431 216.945 204.306 214.657 200.951 215.138L198.569 215.478C197.481 215.634 196.433 215.994 195.48 216.54L191.483 218.829C188.42 220.582 185.094 221.829 181.634 222.523L178.887 223.073C174.642 223.924 170.291 224.113 165.988 223.634L151.403 222.01C148.213 221.655 145.074 220.936 142.048 219.866L125.092 213.87C123.141 213.18 121.243 212.346 119.414 211.376L99.6376 200.886C98.366 200.212 97.2025 199.351 96.1857 198.332C93.4852 195.626 91.9686 191.96 91.9686 188.137V182.324C91.9686 179.834 93.3743 177.557 95.6004 176.442C96.9701 175.756 98.5362 175.57 100.029 175.915L114.083 179.164C115.629 179.522 117.211 179.702 118.799 179.702H130.203C133.859 179.702 136.978 177.059 137.578 173.453L137.744 172.455C137.895 171.548 137.755 170.616 137.344 169.794C136.828 168.759 135.922 167.973 134.826 167.606L102.033 156.655L73.2781 143.69L53.1499 132.166L38.284 120.996C36.6948 119.802 35.1923 118.496 33.788 117.089L24.7755 108.059C22.6116 105.891 20.6913 103.493 19.049 100.907L13.803 92.6477C12.2424 90.1907 10.9415 87.5781 9.92115 84.8521L9.0079 82.4121C7.77438 79.1164 7.14258 75.626 7.14258 72.107C7.14258 68.9529 7.65016 65.8194 8.64587 62.8265L11.7289 53.5596C12.4948 51.2577 13.7857 49.1654 15.4995 47.4483L16.0126 46.9342Z" fill="white"/>
<path d="M199.678 10.5839C201.285 9.5049 203.177 8.92871 205.113 8.92871H206.512C209.256 8.92871 211.943 9.71557 214.253 11.196L226.429 18.9982L239.153 28.316C241.144 29.7742 243.236 31.0888 245.414 32.2498L266.429 43.4525L277.31 47.4369C280.524 48.6137 283.847 49.4704 287.229 49.9944L296.758 51.4705C299.392 51.8786 302.053 52.0835 304.719 52.0835H313.572L328.966 51.1147C333.885 50.8051 338.814 51.5454 343.425 53.2866C346.366 54.3974 349.144 55.9023 351.681 57.7601L362.786 65.8932C363.309 66.2761 363.801 66.6993 364.258 67.1591L366.882 69.8011C367.507 70.4306 367.858 71.2818 367.858 72.1689C367.858 73.8481 366.618 75.2696 364.954 75.498L336.429 79.4148L315.092 85.3829C312.179 86.1976 309.343 87.2648 306.616 88.5725L280.715 100.992L270.902 107.073C265.38 110.495 258.581 111.155 252.504 108.86C251.314 108.411 250.167 107.854 249.078 107.196L236.429 99.5537L220.715 88.0458L209.277 77.5753C206.435 74.9737 203.891 72.0643 201.691 68.9007L198.32 64.0515C196.114 60.8783 194.28 57.4623 192.853 53.8707L192.021 51.7766C190.214 47.2275 189.286 42.3769 189.286 37.482C189.286 32.8685 190.111 28.2922 191.721 23.9688L192.732 21.2535C193.291 19.753 193.984 18.3062 194.804 16.9307L196.735 13.6889C197.474 12.4489 198.479 11.3884 199.678 10.5839Z" fill="white"/>
<path d="M563.524 267.857H567.857L564.968 273.772L537.522 292.996L510.075 310.742L484.074 325.53L450.849 340.318L413.291 352.148L375.733 359.542L349.731 362.5H293.394L255.836 358.063L216.834 350.669L212.5 349.191V346.233H232.724L306.395 350.669H335.286L378.622 346.233L407.513 340.318L445.071 328.488L472.517 316.657L495.63 304.827L534.633 284.124L563.524 267.857Z" fill="#15171B"/>
</svg>
