<svg width="143" height="55" viewBox="0 0 143 55" fill="none" xmlns="http://www.w3.org/2000/svg">
<path d="M18.9007 39.6657C18.9007 40.5168 18.6212 42.4348 18.3291 43.2858C18.037 44.1242 17.586 44.8927 16.9763 45.5913C16.3793 46.2772 15.6109 46.8424 14.6709 47.287C13.7309 47.7189 12.5687 47.9348 11.1842 47.9348C9.86316 47.9348 8.71998 47.757 7.75462 47.4013C6.80196 47.0457 6.01443 46.5249 5.39203 45.839C4.78233 45.153 4.32506 44.302 4.02021 43.2858C3.72806 42.2697 3.58199 41.1011 3.58199 39.7801V30.8632H0V27.7766H2.38164C3.24538 27.7766 9.67898 27.8147 9.67898 27.8147C9.67898 27.8147 4.66801 26.0618 4.66801 25.2235V21.6606H9.37413V27.7766H15.9475V30.8632H9.37413V40.104C9.37413 40.7899 9.43764 41.3615 9.56466 41.8187C9.69169 42.276 9.86951 42.638 10.0982 42.9048C10.3395 43.1715 10.6253 43.3621 10.9555 43.4764C11.2858 43.5907 11.6605 43.6478 12.0797 43.6478C12.537 43.6478 12.9371 43.5462 13.28 43.343C13.623 43.1398 13.9088 42.8603 14.1374 42.5047C14.3788 42.1363 14.5693 41.7108 14.709 41.2281C14.8487 40.7454 14.944 40.2246 14.9948 39.6657H18.9007Z" fill="white"/>
<path d="M20.617 47.3251V27.7766H25.9138V32.4827C26.117 31.746 26.4409 31.0537 26.8855 30.4059C27.33 29.7581 27.8572 29.1929 28.4669 28.7102C29.0893 28.2275 29.7688 27.8465 30.5056 27.567C31.255 27.2876 32.0362 27.1478 32.8491 27.1478C33.9923 27.1478 34.9703 27.2939 35.7833 27.5861C36.5962 27.8782 37.2694 28.2783 37.8029 28.7864C38.3491 29.2818 38.7683 29.8661 39.0604 30.5393C39.3526 31.1998 39.5558 31.9048 39.6701 32.6542C39.7971 33.3909 39.8416 34.1594 39.8035 34.9596C39.7654 35.7472 39.7971 36.9666 39.6701 37.7033L34.964 37.5699C35.0021 36.6935 35.0148 36.0075 34.964 35.2454C34.9259 34.4833 34.7798 33.8291 34.5258 33.283C34.2844 32.7241 33.9097 32.2858 33.4016 31.9683C32.9063 31.6507 32.2203 31.492 31.3439 31.492C30.5056 31.492 29.7752 31.7079 29.1528 32.1398C28.5431 32.5716 28.035 33.1305 27.6285 33.8164C27.2348 34.4896 26.9363 35.2391 26.733 36.0647C26.5425 36.8776 26.4473 37.6715 26.4473 38.4463V47.3251H20.617Z" fill="white"/>
<path d="M41.5007 47.3251V27.7766H47.35V47.3251H41.5007ZM41.4245 25.1854V20.041H47.4072V25.1854H41.4245Z" fill="white"/>
<path d="M51.5242 47.3251V19.7743H57.3735V30.8823C57.6149 30.3869 57.9578 29.9169 58.4024 29.4723C58.847 29.0151 59.3741 28.6149 59.9838 28.272C60.6062 27.929 61.3048 27.6559 62.0796 27.4527C62.8672 27.2495 63.7309 27.1478 64.6709 27.1478C66.0554 27.1478 67.3065 27.3892 68.4243 27.8719C69.5421 28.3418 70.4948 29.0278 71.2823 29.9296C72.0698 30.8187 72.6795 31.9048 73.1114 33.1877C73.5433 34.4706 73.7592 35.9186 73.7592 37.5318C73.7592 39.0942 73.5433 40.5168 73.1114 41.7997C72.6922 43.0699 72.0825 44.1623 71.2823 45.0768C70.4948 45.9787 69.5421 46.6836 68.4243 47.1917C67.3065 47.6871 66.0617 47.9348 64.6899 47.9348C63.75 47.9348 62.8672 47.8268 62.0415 47.6109C61.2286 47.395 60.4792 47.0901 59.7933 46.6963C59.1201 46.3026 58.5231 45.839 58.0023 45.3055C57.4942 44.772 57.0877 44.1813 56.7829 43.5335V47.287L51.5242 47.3251ZM57.3545 37.5699C57.3545 38.5607 57.4751 39.4435 57.7165 40.2183C57.9705 40.9804 58.3262 41.6219 58.7834 42.1427C59.2407 42.6634 59.7869 43.0572 60.422 43.3239C61.0698 43.5907 61.7875 43.7241 62.575 43.7241C63.3498 43.7241 64.0548 43.597 64.6899 43.343C65.3377 43.0763 65.8839 42.6825 66.3285 42.1617C66.7858 41.6409 67.1351 40.9995 67.3764 40.2373C67.6304 39.4625 67.7575 38.5607 67.7575 37.5318C67.7575 36.4521 67.6304 35.5249 67.3764 34.75C67.1224 33.9752 66.7667 33.3401 66.3094 32.8447C65.8521 32.3366 65.306 31.9619 64.6709 31.7206C64.0485 31.4793 63.3562 31.3586 62.5941 31.3586C61.8828 31.3586 61.2095 31.4793 60.5744 31.7206C59.9393 31.9492 59.3804 32.3176 58.8978 32.8257C58.4278 33.3338 58.0531 33.9816 57.7736 34.7691C57.4942 35.5439 57.3545 36.4775 57.3545 37.5699Z" fill="white"/>
<path d="M85.3831 47.9348C83.7572 47.9348 82.2521 47.7062 80.8675 47.2489C79.4957 46.7789 78.3081 46.1057 77.3046 45.2293C76.3011 44.3401 75.52 43.2541 74.9611 41.9712C74.4022 40.6756 74.1227 39.2021 74.1227 37.5509C74.1227 35.8996 74.4022 34.4325 74.9611 33.1496C75.5327 31.854 76.3202 30.7616 77.3236 29.8724C78.3271 28.9833 79.5148 28.3101 80.8866 27.8528C82.2584 27.3828 83.7572 27.1478 85.3831 27.1478C86.9963 27.1478 88.4888 27.3828 89.8606 27.8528C91.2451 28.3101 92.4328 28.9833 93.4235 29.8724C94.427 30.7616 95.2082 31.8476 95.7671 33.1305C96.3387 34.4134 96.6245 35.8742 96.6245 37.5127C96.6245 39.1767 96.345 40.6565 95.7861 41.9521C95.2272 43.235 94.4461 44.3211 93.4426 45.2102C92.4518 46.0993 91.2642 46.7789 89.8797 47.2489C88.5078 47.7062 87.009 47.9348 85.3831 47.9348ZM85.3831 43.7241C86.1579 43.7241 86.8629 43.6034 87.498 43.3621C88.1458 43.108 88.6984 42.7269 89.1556 42.2189C89.6256 41.7108 89.9876 41.0693 90.2417 40.2945C90.4957 39.5197 90.6227 38.5988 90.6227 37.5318C90.6227 36.4775 90.4957 35.563 90.2417 34.7881C89.9876 34.0133 89.6256 33.3719 89.1556 32.8638C88.6984 32.3557 88.1458 31.981 87.498 31.7396C86.8629 31.4856 86.1579 31.3586 85.3831 31.3586C84.5956 31.3586 83.8779 31.4856 83.2301 31.7396C82.595 31.981 82.0488 32.3557 81.5915 32.8638C81.1343 33.3719 80.7786 34.0197 80.5246 34.8072C80.2705 35.582 80.1435 36.4966 80.1435 37.5509C80.1435 38.6051 80.2705 39.5197 80.5246 40.2945C80.7786 41.0693 81.1343 41.7108 81.5915 42.2189C82.0488 42.7269 82.595 43.108 83.2301 43.3621C83.8779 43.6034 84.5956 43.7241 85.3831 43.7241Z" fill="white"/>
<path d="M108.858 40.2373C108.49 40.2373 108.077 40.2437 107.62 40.2564C107.162 40.2691 106.692 40.2945 106.21 40.3326C105.74 40.3707 105.276 40.4215 104.819 40.485C104.362 40.5485 103.949 40.6375 103.58 40.7518C103.225 40.8534 102.939 40.9804 102.723 41.1328C102.507 41.2853 102.399 41.4631 102.399 41.6663C102.399 42.0728 102.615 42.3649 103.047 42.5428C103.491 42.7079 104.114 42.8159 104.914 42.8667L110.763 42.981C112.288 43.0445 113.59 43.1969 114.669 43.4383C115.762 43.6669 116.651 44.0035 117.337 44.4481C118.023 44.88 118.524 45.4134 118.842 46.0485C119.159 46.6836 119.318 47.4267 119.318 48.2778C119.318 49.3955 119.02 50.3609 118.423 51.1738C117.838 51.9868 117.032 52.6536 116.003 53.1744C114.987 53.7079 113.793 54.1017 112.421 54.3557C111.049 54.6097 109.588 54.7368 108.039 54.7368C106.299 54.7368 104.8 54.6161 103.542 54.3748C102.285 54.1461 101.25 53.8286 100.437 53.4221C99.6237 53.0156 99.0203 52.5393 98.6266 51.9931C98.2455 51.4469 98.055 50.8626 98.055 50.2402C98.055 49.8211 98.1375 49.4082 98.3027 49.0018C98.4678 48.608 98.7028 48.2397 99.0076 47.8967C99.3125 47.5664 99.6745 47.2743 100.094 47.0203C100.526 46.7535 101.002 46.5376 101.523 46.3724C100.748 46.2327 100.1 46.0485 99.5792 45.8199C99.0711 45.5786 98.6583 45.3055 98.3408 45.0006C98.0359 44.6831 97.82 44.3401 97.693 43.9718C97.5659 43.5907 97.5024 43.1906 97.5024 42.7714C97.5024 42.1236 97.6676 41.5774 97.9978 41.1328C98.3281 40.6756 98.7536 40.3009 99.2744 40.0087C99.8079 39.7166 100.398 39.4943 101.046 39.3418C101.707 39.1767 102.355 39.0687 102.99 39.0179C101.834 38.4082 100.983 37.6334 100.437 36.6935C99.9031 35.7408 99.6364 34.7183 99.6364 33.6259C99.6364 32.6606 99.8269 31.7778 100.208 30.9775C100.589 30.1773 101.154 29.4977 101.904 28.9388C102.666 28.3672 103.612 27.929 104.743 27.6242C105.886 27.3066 107.213 27.1478 108.725 27.1478C109.334 27.1478 109.912 27.1733 110.459 27.2241C111.017 27.2622 111.545 27.3257 112.04 27.4146C112.332 27.44 112.605 27.4019 112.859 27.3003C113.113 27.186 113.329 27.0272 113.507 26.8239C113.698 26.6207 113.844 26.3857 113.945 26.119C114.06 25.8522 114.117 25.5664 114.117 25.2616C114.117 25.0584 114.091 24.8424 114.041 24.6138C114.002 24.3724 113.952 24.1438 113.888 23.9279C113.837 23.6992 113.78 23.496 113.717 23.3182C113.653 23.1276 113.596 22.9816 113.545 22.88H117.623C117.699 23.007 118.092 23.3626 118.232 23.7564C118.372 24.1375 118.442 24.5693 118.442 25.052C118.442 25.4585 118.359 25.8459 118.194 26.2142C118.029 26.5826 117.794 26.9129 117.489 27.205C117.184 27.4845 116.816 27.7258 116.384 27.929C115.965 28.1323 115.501 28.272 114.993 28.3482C116.098 28.9071 116.918 29.6311 117.451 30.5203C117.997 31.4094 118.27 32.4446 118.27 33.6259C118.27 34.6548 118.054 35.5757 117.623 36.3886C117.203 37.2015 116.587 37.8938 115.774 38.4654C114.974 39.037 113.99 39.4752 112.821 39.7801C111.665 40.0849 110.357 40.2373 108.896 40.2373H108.858ZM104.571 46.6582L104.666 46.6963C104.171 46.9504 103.752 47.2933 103.409 47.7252C103.066 48.1571 102.894 48.6398 102.894 49.1733C102.894 49.5035 102.99 49.7957 103.18 50.0497C103.371 50.3037 103.676 50.5197 104.095 50.6975C104.514 50.8753 105.06 51.0087 105.733 51.0976C106.407 51.1992 107.226 51.25 108.191 51.25C109.144 51.25 109.944 51.1865 110.592 51.0595C111.24 50.9452 111.761 50.7801 112.154 50.5641C112.561 50.3609 112.847 50.1132 113.012 49.8211C113.189 49.5289 113.278 49.205 113.278 48.8493C113.278 48.5445 113.215 48.2651 113.088 48.011C112.974 47.7697 112.77 47.5601 112.478 47.3823C112.186 47.2171 111.792 47.0838 111.297 46.9821C110.801 46.8805 110.185 46.817 109.449 46.7916L104.571 46.6582ZM108.896 36.884C109.519 36.884 110.065 36.8014 110.535 36.6363C111.005 36.4712 111.398 36.2489 111.716 35.9694C112.034 35.6773 112.269 35.3343 112.421 34.9406C112.586 34.5468 112.669 34.1213 112.669 33.664C112.669 33.2067 112.586 32.7876 112.421 32.4065C112.269 32.0254 112.034 31.6952 111.716 31.4157C111.398 31.1236 111.005 30.9013 110.535 30.7489C110.065 30.5838 109.519 30.5012 108.896 30.5012C107.664 30.5012 106.743 30.7997 106.133 31.3967C105.524 31.9937 105.219 32.7495 105.219 33.664C105.219 34.1213 105.289 34.5468 105.429 34.9406C105.581 35.3343 105.81 35.6773 106.114 35.9694C106.419 36.2489 106.8 36.4712 107.258 36.6363C107.728 36.8014 108.274 36.884 108.896 36.884Z" fill="white"/>
<path d="M132.54 40.2373C132.171 40.2373 131.759 40.2437 131.301 40.2564C130.844 40.2691 130.374 40.2945 129.891 40.3326C129.421 40.3707 128.958 40.4215 128.501 40.485C128.043 40.5485 127.63 40.6375 127.262 40.7518C126.906 40.8534 126.621 40.9804 126.405 41.1328C126.189 41.2853 126.081 41.4631 126.081 41.6663C126.081 42.0728 126.297 42.3649 126.729 42.5428C127.173 42.7079 127.796 42.8159 128.596 42.8667L134.445 42.981C135.969 43.0445 137.271 43.1969 138.351 43.4383C139.443 43.6669 140.333 44.0035 141.018 44.4481C141.704 44.88 142.206 45.4134 142.524 46.0485C142.841 46.6836 143 47.4267 143 48.2778C143 49.3955 142.702 50.3609 142.105 51.1738C141.52 51.9868 140.714 52.6536 139.685 53.1744C138.669 53.7079 137.475 54.1017 136.103 54.3557C134.731 54.6097 133.27 54.7368 131.721 54.7368C129.98 54.7368 128.482 54.6161 127.224 54.3748C125.967 54.1461 124.931 53.8286 124.118 53.4221C123.305 53.0156 122.702 52.5393 122.308 51.9931C121.927 51.4469 121.737 50.8626 121.737 50.2402C121.737 49.8211 121.819 49.4082 121.984 49.0018C122.15 48.608 122.385 48.2397 122.689 47.8967C122.994 47.5664 123.356 47.2743 123.775 47.0203C124.207 46.7535 124.684 46.5376 125.204 46.3724C124.43 46.2327 123.782 46.0485 123.261 45.8199C122.753 45.5786 122.34 45.3055 122.023 45.0006C121.718 44.6831 121.502 44.3401 121.375 43.9718C121.248 43.5907 121.184 43.1906 121.184 42.7714C121.184 42.1236 121.349 41.5774 121.68 41.1328C122.01 40.6756 122.435 40.3009 122.956 40.0087C123.49 39.7166 124.08 39.4943 124.728 39.3418C125.389 39.1767 126.036 39.0687 126.671 39.0179C125.516 38.4082 124.665 37.6334 124.118 36.6935C123.585 35.7408 123.318 34.7183 123.318 33.6259C123.318 32.6606 123.509 31.7778 123.89 30.9775C124.271 30.1773 124.836 29.4977 125.585 28.9388C126.348 28.3672 127.294 27.929 128.424 27.6242C129.568 27.3066 130.895 27.1478 132.406 27.1478C133.016 27.1478 133.594 27.1733 134.14 27.2241C134.699 27.2622 135.226 27.3257 135.722 27.4146C136.014 27.44 136.287 27.4019 136.541 27.3003C136.795 27.186 137.011 27.0272 137.189 26.8239C137.379 26.6207 137.525 26.3857 137.627 26.119C137.741 25.8522 137.798 25.5664 137.798 25.2616C137.798 25.0584 137.773 24.8424 137.722 24.6138C137.684 24.3724 137.633 24.1438 137.57 23.9279C137.519 23.6992 137.462 23.496 137.398 23.3182C137.335 23.1276 137.278 22.9816 137.227 22.88H141.304C141.38 23.007 141.774 23.3626 141.914 23.7564C142.054 24.1375 142.124 24.5693 142.124 25.052C142.124 25.4585 142.041 25.8459 141.876 26.2142C141.711 26.5826 141.476 26.9129 141.171 27.205C140.866 27.4845 140.498 27.7258 140.066 27.929C139.647 28.1323 139.183 28.272 138.675 28.3482C139.78 28.9071 140.599 29.6311 141.133 30.5203C141.679 31.4094 141.952 32.4446 141.952 33.6259C141.952 34.6548 141.736 35.5757 141.304 36.3886C140.885 37.2015 140.269 37.8938 139.456 38.4654C138.656 39.037 137.671 39.4752 136.503 39.7801C135.347 40.0849 134.039 40.2373 132.578 40.2373H132.54ZM128.253 46.6582L128.348 46.6963C127.853 46.9504 127.434 47.2933 127.091 47.7252C126.748 48.1571 126.576 48.6398 126.576 49.1733C126.576 49.5035 126.671 49.7957 126.862 50.0497C127.053 50.3037 127.357 50.5197 127.777 50.6975C128.196 50.8753 128.742 51.0087 129.415 51.0976C130.088 51.1992 130.908 51.25 131.873 51.25C132.826 51.25 133.626 51.1865 134.274 51.0595C134.921 50.9452 135.442 50.7801 135.836 50.5641C136.242 50.3609 136.528 50.1132 136.693 49.8211C136.871 49.5289 136.96 49.205 136.96 48.8493C136.96 48.5445 136.897 48.2651 136.77 48.011C136.655 47.7697 136.452 47.5601 136.16 47.3823C135.868 47.2171 135.474 47.0838 134.979 46.9821C134.483 46.8805 133.867 46.817 133.13 46.7916L128.253 46.6582ZM132.578 36.884C133.2 36.884 133.747 36.8014 134.217 36.6363C134.686 36.4712 135.08 36.2489 135.398 35.9694C135.715 35.6773 135.95 35.3343 136.103 34.9406C136.268 34.5468 136.35 34.1213 136.35 33.664C136.35 33.2067 136.268 32.7876 136.103 32.4065C135.95 32.0254 135.715 31.6952 135.398 31.4157C135.08 31.1236 134.686 30.9013 134.217 30.7489C133.747 30.5838 133.2 30.5012 132.578 30.5012C131.346 30.5012 130.425 30.7997 129.815 31.3967C129.206 31.9937 128.901 32.7495 128.901 33.664C128.901 34.1213 128.971 34.5468 129.11 34.9406C129.263 35.3343 129.491 35.6773 129.796 35.9694C130.101 36.2489 130.482 36.4712 130.939 36.6363C131.409 36.8014 131.956 36.884 132.578 36.884Z" fill="white"/>
<path d="M84.1247 15.4968C83.5086 15.6695 81.6659 16.1844 82.2983 16.0871C82.9359 15.989 83.5687 15.5914 84.208 15.5663C84.5905 15.5512 83.5905 16.0259 83.3295 16.3059C83.3047 16.3324 83.2761 16.4178 83.3122 16.4135C83.416 16.4012 83.506 16.3319 83.5934 16.2746C83.7531 16.1699 84.0534 15.944 84.1351 15.7399C84.2701 15.4022 83.5601 15.6404 83.5274 15.6496C83.1139 15.766 82.7219 15.9064 82.2983 15.9899C81.6283 16.1218 80.7289 16.1322 80.201 16.6357C79.6975 17.116 79.3001 17.8537 78.9129 18.4274C78.6463 18.8223 78.4731 19.296 78.326 19.7468C78.1501 20.286 77.8233 20.6722 77.458 21.101C77.0826 21.5416 76.8129 22.0535 76.4927 22.5315C76.2535 22.8888 75.9601 23.2618 75.9406 23.7086C75.918 24.2298 75.9663 24.7515 76.076 25.2607C76.383 26.685 75.7341 27.9331 75.0969 29.1496C74.9473 29.4352 74.6823 29.5599 75.1663 29.844C76.0355 30.3542 76.9944 30.7811 77.9545 31.0836C78.67 31.3091 80.6943 32.2988 79.9858 32.0524C79.2172 31.7851 78.5 31.3898 77.7497 31.0802C77.6386 31.0343 77.4619 30.9538 77.333 30.9621C77.1324 30.975 77.658 31.203 77.8399 31.2885C79.143 31.9009 80.5587 32.1854 81.9094 32.66C82.989 33.0394 83.9892 33.6181 85.1281 33.8371C85.8634 33.9785 86.6084 34.0655 87.3469 34.1878C88.1304 34.3176 88.9036 34.4968 89.701 34.4968C90.2894 34.4968 90.5567 34.3886 90.9927 34.0107C91.1276 33.8938 91.293 33.8429 91.4372 33.7468" stroke="#0178FF" stroke-width="3" stroke-linecap="round"/>
<path d="M90.8747 34.4969C91.3034 34.5595 91.7145 34.4897 92.142 34.4379C92.7107 34.369 93.2285 34.3363 93.767 34.1185C94.1968 33.9446 94.6349 33.7618 95.0552 33.5664C95.6157 33.3058 96.1041 32.9306 96.6872 32.7192C97.0635 32.5827 97.555 32.507 97.8712 32.2435C98.0382 32.1043 98.178 31.9504 98.3712 31.8442C98.597 31.7199 98.4303 31.6921 98.2462 31.6185C97.9045 31.4818 97.7147 31.2919 97.5552 30.9553C96.7137 29.1788 95.8193 27.6229 95.5654 25.7608C95.3502 24.1829 94.017 22.8789 94.6663 21.4067C94.0459 20.6654 94.4553 19.7909 93.9337 18.9726C93.5929 18.438 93.2584 17.9124 92.7983 17.4692C91.6718 16.3839 90.0043 15.8338 88.4927 15.5455C87.386 15.3345 86.0805 14.9574 84.9719 15.3442C84.4882 15.5129 84.0781 15.9473 83.6663 16.233C82.6617 16.9303 81.3578 17.4479 80.5274 18.365C79.7696 19.202 79.5246 20.4253 79.0066 21.4067C78.2995 22.746 77.5612 23.9084 77.326 25.4275C77.1615 26.4901 76.8956 28.1686 77.5656 29.1185C77.6361 29.2184 77.7635 29.3674 77.8747 29.3164C78.2533 29.1428 78.4569 27.7448 78.4649 27.6983C78.7505 26.0467 78.769 24.3596 79.1108 22.7157C79.3364 21.6304 79.741 20.7062 80.326 19.7747C80.5251 19.4577 81.0117 18.515 81.017 18.8893C81.0193 19.052 80.9761 19.2124 80.9441 19.3719C80.8511 19.836 80.3406 22.0569 80.2913 22.2817C79.8736 24.1876 79.4548 26.1002 79.2948 28.049C79.2638 28.4264 79.2399 28.8061 79.2566 29.1844C79.2632 29.3345 79.2569 29.5169 79.3642 29.6219C79.4228 29.6793 79.5341 29.5674 79.576 29.4969C79.8496 29.0377 80.3252 27.532 80.4233 27.2122C81.0964 25.016 81.6436 22.7808 82.2253 20.5594C82.3551 20.0638 82.4921 19.57 82.6177 19.0733C82.83 18.2341 82.4436 19.413 82.4024 19.5317C81.6863 21.5938 80.9999 23.6665 80.4302 25.7747C80.2523 26.4332 80.083 27.0945 79.9372 27.7608C79.9332 27.7791 79.5793 29.3683 79.708 29.7261C79.7928 29.962 80.8758 29.3869 80.951 29.3719C81.659 29.2312 82.1066 29.5719 82.6385 29.9761C83.1678 30.3783 83.4036 30.6261 84.0483 30.8858C85.2528 31.3712 86.5896 31.455 87.8712 31.4483C89.4584 31.4401 90.9966 31.0603 92.576 31.0039C93.0304 30.9877 93.5066 30.9076 93.958 30.9136C94.2995 30.9182 93.3246 31.1769 92.9927 31.2574C91.5065 31.6178 89.9703 31.8056 88.4997 32.2261C88.2853 32.2874 88.0321 32.3224 87.8851 32.49C87.8217 32.5622 88.0109 32.6532 88.1038 32.6775C88.9821 32.9072 90.076 32.7899 90.9545 32.6462C92.4193 32.4066 93.5773 31.6499 94.6663 30.6775C95.1056 30.2852 96.1938 29.4781 96.0448 28.733C96.0228 28.623 95.8805 28.8859 95.7983 28.9622C95.4529 29.2829 95.5782 28.0377 95.5726 27.5664C95.5591 26.4398 95.5861 26.1145 95.5448 25.0004C95.5157 24.2144 95.4982 23.3026 95.1455 22.5733C94.7648 21.7862 94.031 21.2365 93.3469 20.7365C92.3715 20.0236 91.3614 19.3572 90.3816 18.6497C88.8016 17.5087 86.9989 16.1291 84.9163 16.7539C82.8622 17.3701 82.1919 19.7531 81.8747 21.615C81.517 23.7143 81.1785 26.2533 82.4094 28.1428C83.3903 29.6486 85.352 30.6169 87.149 30.5212C87.2838 30.5141 87.4986 30.5486 87.5413 30.4205C87.5779 30.3109 87.3519 30.2761 87.2392 30.2504C86.9496 30.1844 86.6508 30.1564 86.3538 30.1497C85.0504 30.1206 83.7748 30.3996 82.4788 30.4726C81.5676 30.524 80.7036 30.4411 79.8122 30.2678C79.6908 30.2442 78.8627 30.0769 79.8712 30.3303C82.8967 31.0904 86.2317 31.3706 89.3122 30.7886C90.6656 30.5329 92.4312 30.0598 93.1385 28.7226C93.7608 27.5463 93.4861 25.8706 93.1177 24.6705C92.7956 23.6212 92.217 22.5435 91.4997 21.7122C90.4897 20.5417 88.9918 19.3448 87.3851 19.2087C86.0711 19.0974 84.8513 19.9567 84.1316 20.9969C83.1357 22.4363 82.8387 24.2959 83.2878 25.9796C83.5964 27.1362 84.1052 28.2441 85.3677 28.6393C87.492 29.3043 89.7561 27.4593 90.7427 25.7608C91.6759 24.1543 91.5136 22.2673 90.0865 21.056C88.913 20.06 87.0909 19.8346 85.7774 20.7539C84.2853 21.7982 83.3847 24.2321 84.201 25.9483C85.1472 27.9374 87.7587 27.4243 88.833 25.8789C89.8389 24.4319 88.9097 22.4246 87.2149 22.174C85.5072 21.9215 84.81 23.8772 85.1247 25.2192C85.35 26.1805 86.1389 27.1226 87.1663 27.2886C88.4104 27.4896 89.857 26.2769 89.392 24.9553C89.3149 24.736 89.0635 24.5088 88.833 24.5386C88.1481 24.6273 88.0541 25.7312 88.1872 26.1358C88.4573 26.9574 89.8221 27.4744 90.3365 26.5629C90.4261 26.4041 90.4074 26.1584 90.2913 26.0178C89.951 25.6057 89.2703 25.7953 88.9858 26.1289C88.4006 26.8149 88.6766 28.2649 89.7531 28.2817C90.9157 28.2997 90.2386 26.7331 89.8955 26.3511C89.8136 26.26 89.6491 26.1335 89.5552 26.2122C89.318 26.411 89.8062 26.8377 90.083 26.9761C90.4535 27.1613 90.8446 27.0794 90.6247 26.5282C90.0611 25.1159 88.2658 24.1409 86.958 23.615C86.5407 23.4472 86.0974 23.3223 85.649 23.2886C84.667 23.2149 85.5439 23.8777 85.6872 23.9761C85.9313 24.1437 86.2095 24.2584 86.4858 24.365C86.6383 24.4238 86.8019 24.4575 86.9649 24.4692C87.0042 24.472 86.9128 24.4026 86.8747 24.3928C86.7241 24.3539 86.5682 24.3327 86.4128 24.3268C86.2633 24.3211 86.1139 24.3432 85.9649 24.358C85.9041 24.3641 85.8352 24.4232 85.7844 24.3893C85.7425 24.3614 85.8762 24.348 85.9233 24.3303C85.9711 24.3123 86.4034 24.1439 86.4997 24.1636C86.6589 24.1961 86.4984 24.7192 86.4997 24.8025C86.5025 24.9931 86.5534 24.9936 86.6247 25.1219" stroke="#0178FF" stroke-width="3" stroke-linecap="round"/>
<path d="M80.5638 4.55026C80.7653 4.49355 80.9833 4.5045 81.1888 4.58167L81.249 4.60424C81.5016 4.69909 81.726 4.87325 81.8906 5.10224L82.1821 5.50786L83.3875 7.28823L84.1854 8.20563C84.4153 8.46992 84.6628 8.71646 84.9259 8.943L85.1625 9.14671C85.3483 9.30676 85.5476 9.44766 85.7572 9.56724C85.9251 9.66299 86.099 9.74472 86.2772 9.81162L86.4305 9.8692C86.659 9.95498 86.8917 10.0238 87.1268 10.0753L87.2608 10.1046C87.4067 10.1365 87.5511 10.1792 87.6928 10.2325L87.7855 10.2673C88.0887 10.3811 88.374 10.5512 88.6272 10.7693C88.8264 10.9409 89.0034 11.14 89.1528 11.3607L89.4745 11.8358C89.6448 12.0874 89.7844 12.3593 89.8896 12.6444L90.0855 13.1757C90.1018 13.2198 90.1104 13.2661 90.111 13.3122C90.113 13.4704 90.2089 13.618 90.3506 13.6811L91.7007 14.2822L92.355 14.6872C92.8265 14.9791 93.2774 15.31 93.703 15.6765L93.8123 15.7707C94.2234 16.1247 94.6051 16.5164 94.9524 16.9405C95.2143 17.2605 95.4559 17.5981 95.6752 17.9506L96.0644 18.5762C96.4682 19.3904 96.805 20.2354 97.0708 21.1013L97.1704 21.4258L97.6157 23.2527L97.945 24.8148L98.2432 26.144L98.6305 27.8385L98.9343 29.0853C98.9692 29.2282 99.0166 29.3683 99.0759 29.5038C99.2082 29.806 99.3977 30.0799 99.6317 30.3075L100.07 30.7334C100.279 30.937 100.441 31.1891 100.54 31.4665C100.651 31.7752 100.681 32.1038 100.625 32.4152L100.605 32.5305C100.552 32.8243 100.441 33.098 100.278 33.3336L100.183 33.4704C100.007 33.7244 99.7895 33.9424 99.5403 34.1157L98.8832 34.5726L98.0154 35.0213L96.9778 35.4064L94.8715 35.9434L92.4256 36.353L89.667 36.5344L87.4137 36.5737L85.9473 36.4658L83.0375 35.8159L81.7369 35.4383L78.5682 34.3593L76.5572 33.4936L75.2524 32.7824L74.666 32.3991C74.2639 32.1362 73.8961 31.8147 73.5745 31.445L73.3638 31.2028C73.0684 30.8631 72.8356 30.4696 72.6792 30.0454L72.5674 29.7424C72.5474 29.6881 72.5334 29.6319 72.5258 29.5751C72.5129 29.4779 72.5188 29.3804 72.5434 29.2888L72.6408 28.925C72.7296 28.5934 72.8837 28.2902 73.0934 28.0344L73.1917 27.9146C73.4475 27.6472 73.6332 27.3129 73.733 26.9402L73.7564 26.8528C73.8364 26.5541 73.8671 26.2392 73.8474 25.9214L73.8068 25.2686L73.7954 24.3541C73.7892 23.8528 73.8207 23.355 73.8896 22.8653L74.0673 22.202C74.1819 21.7739 74.3375 21.3623 74.5316 20.9733L74.8379 20.3598C74.8422 20.3511 74.8474 20.3431 74.8535 20.3357C74.9147 20.2611 74.8782 20.1382 74.7844 20.103L74.277 19.9125C74.2384 19.898 74.2014 19.8786 74.1666 19.8547L73.3645 19.3037C72.9876 19.0448 72.6293 18.7548 72.2932 18.4368L72.2305 18.3775C71.9632 18.1245 71.7128 17.8519 71.4816 17.5619L70.8454 16.7639C70.6634 16.5357 70.5232 16.2751 70.4327 15.9971L70.3884 15.8607C70.3726 15.8123 70.3613 15.7628 70.3547 15.7128C70.3408 15.6087 70.3472 15.5044 70.3734 15.4064L70.6038 14.5462C70.6562 14.3502 70.7539 14.1745 70.8884 14.0338L70.9917 13.9258C71.0453 13.8698 71.1107 13.8279 71.1834 13.8031L71.326 13.7543C71.3617 13.7422 71.4015 13.7453 71.4373 13.7631C71.596 13.842 71.7196 13.6332 71.5893 13.5065L71.1765 13.1051L69.9484 11.7588L69.0019 10.4076L68.3682 9.28444L68.2373 8.98557C68.0159 8.4799 67.8427 7.95547 67.7204 7.42062L67.6178 6.97171C67.5508 6.67852 67.5151 6.38084 67.5114 6.08444L67.5109 6.04154C67.5067 5.70219 67.548 5.36774 67.6336 5.04815C67.7265 4.70112 67.8706 4.37556 68.0608 4.08288L68.273 3.75619C68.3638 3.61651 68.4696 3.48906 68.5886 3.37612L68.7352 3.23695C68.8511 3.12691 68.9882 3.04383 69.1387 2.99241C69.3912 2.90614 69.6702 2.91277 69.9326 3.0113L69.9556 3.01995C70.1762 3.10274 70.3769 3.24368 70.5378 3.42873L70.6191 3.52212C70.6868 3.60005 70.7488 3.6833 70.8044 3.77102L71.6405 5.09099L72.7568 6.50596L73.2855 7.07038C73.4655 7.26255 73.662 7.43651 73.8719 7.58962C74.0779 7.73983 74.2958 7.86924 74.5225 7.97595L74.9343 8.16977C75.2063 8.29776 75.4885 8.39408 75.7758 8.45692L75.8283 8.4684C75.9757 8.50066 76.1217 8.54385 76.2649 8.59765C76.7916 8.79537 77.2709 9.13195 77.6553 9.57389L77.7225 9.65116C77.9524 9.91544 78.1485 10.2097 78.305 10.5254L78.4085 10.7341C78.5862 11.0924 78.7272 11.4674 78.829 11.8521L79.001 12.5018L79.2764 14.2651L79.3663 14.6338C79.4151 14.8341 79.605 14.9677 79.7912 14.9329C79.8288 14.9259 79.8646 14.9121 79.897 14.8922L80.7428 14.373L81.4745 14.005C81.49 13.9972 81.5083 13.9964 81.5254 14.0029C81.5813 14.0238 81.6294 13.9672 81.6043 13.9099L81.504 13.6809C81.4977 13.6666 81.4898 13.653 81.4805 13.6405L80.4632 12.2762L79.8294 11.1531L79.8038 11.1042C79.5331 10.5873 79.3135 10.0455 79.1489 9.48804C79.0201 9.05225 78.9255 8.60865 78.8659 8.16195L78.8001 7.66835C78.7973 7.44712 78.8243 7.22909 78.8801 7.02073L78.9963 6.58651C79.0778 6.28229 79.1967 5.99349 79.3501 5.72716L79.4236 5.59944C79.5689 5.34714 79.7539 5.12474 79.9713 4.94087L80.2123 4.737C80.315 4.65011 80.4344 4.58668 80.5638 4.55026ZM89.3936 14.5225L87.8113 14.1498C86.7239 14.0357 85.6375 14.0492 84.572 14.19L84.4313 14.2086L82.9153 14.6353L81.4303 15.295L80.5537 15.7581C80.4853 15.7942 80.4214 15.8385 80.3632 15.8902C80.0444 16.1733 79.9312 16.6443 80.0755 17.0877L80.2055 17.4874C80.2336 17.5739 80.2678 17.6586 80.3076 17.7407L80.5626 18.2657C80.8339 18.8245 81.1544 19.3581 81.5194 19.8588L81.8591 20.3247L82.2182 20.7376C82.3562 20.8963 82.4456 21.0938 82.4732 21.3009C82.4862 21.3983 82.4853 21.4961 82.4705 21.5908L82.4043 22.0151C82.3765 22.193 82.3188 22.3619 82.2338 22.5138L82.1325 22.6946C82.0489 22.8439 81.9214 22.9584 81.7675 23.0221C81.6467 23.0721 81.5139 23.0892 81.3804 23.0718L81.3068 23.0622C81.1913 23.0471 81.0775 23.0107 80.9708 22.9546C80.6193 22.7699 80.2145 22.8093 79.9322 23.0555L79.5584 23.3816C79.466 23.4622 79.365 23.5316 79.2571 23.5886L78.7772 23.8421C78.5614 23.9561 78.3042 23.9694 78.0637 23.8791L77.9144 23.8231C77.8146 23.7856 77.7266 23.7152 77.664 23.6229C77.5966 23.5232 77.5629 23.4043 77.5691 23.2871L77.5702 23.2652C77.5884 22.9192 77.3036 22.6154 76.9763 22.6315L76.6462 22.6479C76.5911 22.6506 76.5355 22.6472 76.4802 22.6379L76.1106 22.5754C76.055 22.5659 75.9999 22.551 75.9461 22.5309C75.4749 22.3539 74.9874 22.6047 74.8572 23.0909L74.8101 23.2668C74.7834 23.3665 74.7705 23.4708 74.7718 23.5767L74.7947 25.4182L74.8204 25.8318C74.85 26.308 74.8039 26.7796 74.6841 27.2271C74.5371 27.776 74.282 28.2778 73.9348 28.7012L73.9062 28.7361L73.8203 28.8177C73.7124 28.9201 73.6344 29.0531 73.5942 29.2033C73.5304 29.4416 73.5664 29.7054 73.6934 29.9304L73.7359 30.0059C73.7857 30.0941 73.8461 30.1757 73.9154 30.2485L74.1955 30.5425C74.3764 30.7324 74.5728 30.9047 74.782 31.0573L75.1306 31.3115C75.5217 31.5968 75.9326 31.848 76.3587 32.0625L77.4477 32.6108L81.1839 34.0135L84.0399 34.8644L86.7219 35.3181L88.385 35.3892L91.0318 35.2764L93.254 35.0042L94.9129 34.7418L96.8225 34.2415L98.1956 33.6505L98.8987 33.2188C99.0259 33.1407 99.1418 33.0449 99.2437 32.9337L99.4689 32.688C99.5662 32.5818 99.6281 32.444 99.6464 32.293C99.6767 32.0416 99.583 31.7808 99.3973 31.6003L98.86 31.0778C98.6767 30.8995 98.5226 30.6905 98.4048 30.4605L98.3019 30.2594C98.1626 29.9873 98.0571 29.6995 97.9881 29.4038L97.5266 27.4241L97.0192 25.1312L96.721 23.802L96.1866 21.6097L95.7766 20.3492C95.4297 19.557 95.0047 18.8006 94.5094 18.0934L94.3082 17.8062C93.8328 17.2595 93.3158 16.7548 92.7635 16.2977L92.3697 15.9718L91.5744 15.452L90.6673 15.0007L89.3936 14.5225Z" fill="#28211E"/>
<path d="M69.1346 3.689C69.3375 3.56443 69.5739 3.54039 69.7917 3.62219C69.9573 3.68434 70.1031 3.80427 70.2101 3.96626L71.3092 5.6304L71.9822 6.48344C72.2773 6.85751 72.5962 7.20418 72.9362 7.52037L73.1811 7.74815C73.4746 8.02113 73.7912 8.25754 74.1256 8.45362C74.4891 8.6667 74.8717 8.83086 75.266 8.94303L75.8883 9.12002L76.2265 9.24699C76.6184 9.39411 76.9759 9.64723 77.2708 9.98632C77.4473 10.1893 77.5991 10.4203 77.7217 10.6729L77.8917 11.023C78.1357 11.5256 78.3172 12.0672 78.4304 12.6312L78.4999 12.9775L78.8914 15.0056L79.4795 16.9968L79.7656 17.7258C79.9818 18.2771 80.2357 18.8065 80.5246 19.3089L80.7092 19.6299C80.8915 19.947 81.0965 20.2448 81.3219 20.5202L81.8527 21.1686C81.8831 21.2057 81.9088 21.2479 81.9289 21.2939C81.9837 21.4191 81.9943 21.565 81.9583 21.6994L81.8322 22.1703C81.8106 22.2508 81.7694 22.322 81.7137 22.3749C81.6117 22.4717 81.4735 22.4958 81.3522 22.4378L80.9453 22.2432C80.6446 22.0995 80.3059 22.1184 80.018 22.2952L79.9124 22.36L79.09 23.0106C79.0061 23.077 78.9168 23.1332 78.8234 23.1784L78.3778 23.3938C78.3403 23.4119 78.2986 23.4139 78.26 23.3994C78.1579 23.3611 78.1093 23.2235 78.158 23.1106L78.2836 22.8194C78.3021 22.7766 78.3258 22.7373 78.3541 22.7028L78.8061 22.1516C78.8458 22.1032 78.8755 22.0445 78.8927 21.9802L78.9154 21.8954C78.9737 21.6778 78.8492 21.4514 78.6576 21.4264C78.6045 21.4195 78.5508 21.4292 78.5019 21.4545L77.9906 21.7189C77.8035 21.8157 77.6067 21.8837 77.4051 21.9214L76.8824 22.0192C76.778 22.0387 76.6718 22.0405 76.567 22.0247L75.9457 21.9306C75.8221 21.9119 75.7238 21.7988 75.7044 21.6531C75.6866 21.52 75.7386 21.3874 75.8359 21.3176L76.4848 20.8519L77.0754 20.3524C77.1611 20.2798 77.2181 20.1689 77.233 20.0453C77.2626 19.7997 77.1213 19.5711 76.9146 19.5303L76.7665 19.5011C76.6994 19.4878 76.6308 19.4897 76.5643 19.5067L76.2855 19.5778C76.0718 19.6323 75.8521 19.6456 75.6349 19.6173L75.5014 19.5999C75.2088 19.5617 74.923 19.4704 74.6539 19.329L74.2122 19.0968C73.7956 18.8779 73.4016 18.6033 73.0378 18.2783L72.7542 18.025C72.454 17.7568 72.171 17.4628 71.9074 17.1452L71.1962 16.2886C71.1338 16.2135 71.0813 16.1278 71.0403 16.0342C70.9314 15.7854 70.9103 15.4955 70.9819 15.2283L71.0902 14.8239C71.1368 14.6497 71.2626 14.5216 71.4151 14.4931C71.5086 14.4756 71.6044 14.4973 71.686 14.5544L72.4557 15.0931C72.5402 15.1523 72.6302 15.1999 72.7238 15.235L73.3985 15.4883C73.6138 15.5692 73.847 15.4538 73.9498 15.2156L73.9783 15.1494C74.0042 15.0894 74.0134 15.0212 74.0045 14.9546C73.9934 14.871 73.9546 14.7961 73.8968 14.7464L72.1646 13.2546L70.7086 11.7121L69.7352 10.4614L69.2463 9.651C69.0547 9.33339 68.8824 9.00008 68.7307 8.65357L68.6527 8.47563C68.4706 8.05962 68.3274 7.62125 68.2258 7.16835L68.1518 6.83874C68.1044 6.62721 68.0756 6.41041 68.0661 6.19184L68.0581 6.00972C68.0468 5.7524 68.0748 5.49478 68.1405 5.24917C68.1995 5.02902 68.288 4.82156 68.4028 4.63478L68.7578 4.05674C68.8462 3.91273 68.9618 3.79509 69.0953 3.71313L69.1346 3.689Z" fill="#F2F4F6"/>
<path d="M80.6197 5.15872C80.7351 5.11927 80.8579 5.12116 80.9724 5.16417L81.0565 5.19571C81.2196 5.25696 81.3646 5.37202 81.4745 5.52739L82.0518 6.34398C82.5303 7.11303 83.0543 7.8409 83.6199 8.5221L83.9717 8.94588L84.2756 9.22274C84.6231 9.5393 84.9959 9.81473 85.3888 10.0451C85.6945 10.2243 86.0114 10.3756 86.3366 10.4977L86.6123 10.6012L87.5463 10.8773C87.844 10.9652 88.1226 11.1267 88.3638 11.3511C88.5181 11.4946 88.6554 11.6622 88.7718 11.8493L89.2793 12.665C89.3031 12.7032 89.3243 12.7436 89.3427 12.7857L89.4494 13.0293C89.4748 13.0872 89.4796 13.1546 89.463 13.2168C89.4316 13.334 89.332 13.4057 89.2297 13.3847C88.0513 13.143 86.8533 12.9624 85.6533 13.0454C85.15 13.0802 84.6478 13.1385 84.1478 13.2203L83.7439 13.2865L83.0472 13.4924C82.6544 13.6085 82.2384 13.5031 81.92 13.207C81.8575 13.1489 81.7996 13.0842 81.7471 13.0137L81.1385 12.1976L80.4198 11.0426L80.0231 10.2334C79.8449 9.8699 79.7015 9.4841 79.5953 9.08308L79.5375 8.86455C79.466 8.59433 79.421 8.31526 79.4035 8.03285L79.3931 7.8667C79.3709 7.50879 79.4065 7.14915 79.4981 6.80706C79.5845 6.48462 79.7191 6.1832 79.8955 5.91719L80.0063 5.75017C80.0679 5.65741 80.1364 5.57147 80.2111 5.4934L80.3856 5.31094C80.4531 5.2403 80.5331 5.18831 80.6197 5.15872Z" fill="#F2F4F6"/>
<path d="M97.1972 31.3083C97.2235 31.3021 97.2515 31.3041 97.278 31.314C97.3791 31.352 97.4184 31.4845 97.3524 31.5649L97.254 31.6849C97.2282 31.7164 97.1949 31.74 97.157 31.7535L95.2513 32.4342L93.3149 33.035L91.5172 33.4667L89.295 33.7389L86.8718 33.7143L84.5295 33.3882L82.9472 33.0154L79.6356 31.7721L77.5086 30.6416L75.3761 29.2943C75.3591 29.2835 75.3428 29.2715 75.3273 29.2581L75.1891 29.1391C75.1491 29.1047 75.1314 29.0494 75.1447 29C75.1623 28.9342 75.2283 28.9003 75.292 28.9242L76.3654 29.3272L80.6152 31.2547L82.3134 31.8923L84.9416 32.5471L86.7476 32.7825L89.1707 32.807L90.9994 32.6084L92.5734 32.3141L95.243 31.7672L97.1972 31.3083Z" fill="#070808"/>
</svg>
