<svg width="50" height="32" viewBox="0 0 50 32" fill="none" xmlns="http://www.w3.org/2000/svg">
<path d="M16.0648 0H17.0976L18.0155 0.57554L20.081 1.95683L21.917 2.8777L23.294 3.33813L24.0972 3.45324H25.13L26.048 3.33813H27.0807L28.1134 3.68345L29.4904 4.60432L30.2937 5.52518L30.4084 5.8705L32.5886 5.98561L34.5394 6.33094L36.6048 7.02158L38.0966 7.82734L39.3588 8.7482L40.5063 9.78417L41.6538 11.2806L42.8013 13.0072L43.7192 14.5036L44.5225 15.7698L45.5552 17.3813L46.4732 18.7626L47.047 19.3381L48.7682 20.0288L49.4567 20.8345L49.5714 21.9856L49.1124 23.1367L48.0797 24.2878L47.1617 25.0935L46.0142 25.8993L43.6045 27.2806L40.7358 28.6619L37.4081 29.9281L34.6541 30.8489L32.8181 31.3094L29.0314 31.7698L27.3102 31.8849L23.0645 32L20.3105 31.8849L18.4745 31.6547L16.7533 31.3094L14.9173 30.3885L14.1141 29.4676L13.9993 29.2374V28.0863L14.3436 27.3957L14.6878 26.8201V25.554L14.2288 24.4029L13.6551 22.6763L13.5403 21.8705V20.3741L13.8846 18.8777L13.9993 18.6475H12.9666L10.9011 18.187L9.40939 17.6115L7.34392 16.4604L6.88492 15.8849L6.77017 15.6547V14.1583L7.11442 13.5827L7.45866 13.3525L8.7209 13.4676L6.99967 12.777L5.04894 11.8561L3.44246 10.8201L2.29497 9.89928L1.37698 8.97842L0.344246 7.36691L0 6.33094V5.17986L0.458995 3.91367L0.917989 3.22302L1.60648 2.76259H2.63922L3.32771 3.10791L4.93419 4.25899L6.77017 5.29496L8.03241 5.8705L8.9504 6.10072L10.5569 6.21583L11.4749 6.10072H12.8519L14.4583 6.90648L15.6058 7.94245L16.4091 9.09352L17.3271 10.8201L17.786 11.5108L18.245 11.2806L19.163 10.3597L19.9663 9.66906H20.1958L19.8515 9.32374L18.1303 8.28777L16.9828 7.36691L16.1796 6.67626L15.1468 5.29496L14.5731 4.14389L14.4583 3.79856V2.41727L14.8026 1.26619L15.4911 0.345324L16.0648 0Z" fill="#0178FF"/>
<path d="M16.0648 0H17.0976L18.0155 0.57554L20.081 1.95683L21.917 2.8777L23.294 3.33813L24.0972 3.45324H25.13L26.048 3.33813H27.0807L28.1134 3.68345L29.4904 4.60432L30.2937 5.52518L30.4084 5.8705L32.5886 5.98561L34.5394 6.33094L36.6048 7.02158L38.0966 7.82734L39.3588 8.7482L40.5063 9.78417L41.6538 11.2806L42.8013 13.0072L43.7192 14.5036L44.5225 15.7698L45.5552 17.3813L46.4732 18.7626L47.047 19.3381L48.7682 20.0288L49.4567 20.8345L49.5714 21.9856L49.1124 23.1367L48.0797 24.2878L47.1617 25.0935L46.0142 25.8993L43.6045 27.2806L40.7358 28.6619L37.4081 29.9281L34.6541 30.8489L32.8181 31.3094L29.0314 31.7698L27.3102 31.8849L23.0645 32L20.3105 31.8849L18.4745 31.6547L16.7533 31.3094L14.9173 30.3885L14.1141 29.4676L13.9993 29.2374V28.0863L14.3436 27.3957L14.6878 26.8201V25.554L14.2288 24.4029L13.6551 22.6763L13.5403 21.8705V20.3741L13.8846 18.8777L13.9993 18.6475H12.9666L10.9011 18.187L9.40939 17.6115L7.34392 16.4604L6.88492 15.8849L6.77017 15.6547V14.1583L7.11442 13.5827L7.45866 13.3525L8.7209 13.4676L6.99967 12.777L5.04894 11.8561L3.44246 10.8201L2.29497 9.89928L1.37698 8.97842L0.344246 7.36691L0 6.33094V5.17986L0.458995 3.91367L0.917989 3.22302L1.60648 2.76259H2.63922L3.32771 3.10791L4.93419 4.25899L6.77017 5.29496L8.03241 5.8705L8.9504 6.10072L10.5569 6.21583L11.4749 6.10072H12.8519L14.4583 6.90648L15.6058 7.94245L16.4091 9.09352L17.3271 10.8201L17.786 11.5108L18.245 11.2806L19.163 10.3597L19.9663 9.66906H20.1958L19.8515 9.32374L18.1303 8.28777L16.9828 7.36691L16.1796 6.67626L15.1468 5.29496L14.5731 4.14389L14.4583 3.79856V2.41727L14.8026 1.26619L15.4911 0.345324L16.0648 0ZM29.8347 7.13669L27.7692 7.36691L25.7037 7.82734L23.6382 8.7482L21.917 9.78417L20.3105 11.0504L19.2778 11.9712L18.704 12.777L19.622 13.9281L20.999 15.1942L22.4907 16.1151L23.4087 16.5755L23.6382 17.036L23.753 17.9568L23.5235 18.7626L23.0645 19.1079L22.4907 19.223L21.458 19.1079L20.54 20.3741L19.5073 21.295H18.5893L18.245 21.0647L18.0155 20.1439L16.7533 20.6043L16.0648 20.7194H14.8026V22.1007L15.4911 24.1727L15.9501 25.3237V27.0504L15.4911 27.9712L15.2616 28.3165V29.0072L15.8353 29.4676L16.8681 29.9281L18.704 30.3885L21.1138 30.6187H26.1627L29.9494 30.3885L33.3919 29.813L35.4573 29.2374L38.6703 28.0863L41.3095 26.9353L43.2603 26.0144L45.4405 24.7482L46.9322 23.5971L47.8502 22.6763L48.3092 21.8705L48.1944 21.1799L46.4732 20.4892L45.5552 19.6835L44.0635 17.3813L42.6865 15.1942L41.8833 13.9281L40.5063 11.8561L39.5883 10.705L38.5556 9.66906L36.9491 8.63309L35.8016 8.05755L33.9656 7.48201L32.8181 7.2518L31.5559 7.13669H29.8347Z" fill="white"/>
<path d="M1.60743 3.42865H2.41256L4.59791 4.92675L6.4382 5.96389L8.27849 6.65532L9.77373 6.88579L11.384 6.77055H12.6492L13.7994 7.34675L15.1796 8.61436L15.8697 9.76675L17.0199 11.7258L18.4001 13.5696L19.6653 14.9525L21.2756 16.2201L22.7708 17.0267L23.0008 17.2572V18.1791L22.7708 18.5248L21.2756 18.4096L20.7005 18.9858L19.7803 20.1382L19.0902 20.7144H18.7452L18.8602 20.0229L19.3203 19.101V18.4096L18.7452 18.5248L17.825 19.3315L16.6748 19.9077L15.4096 20.1382L15.1796 19.6772L15.9847 18.7553L16.6748 17.8334L16.5598 17.142L15.7547 17.2572L14.9496 17.7182L13.7994 17.9487L11.729 17.7182L9.77373 17.0267L7.81842 15.9896L7.35835 15.5287V14.261L7.81842 14.0306L9.31366 14.3763H10.9239L11.0389 13.6848L10.9239 13.4544L8.16347 12.5325L5.86311 11.4953L4.25285 10.5734L2.87263 9.53627L1.72245 8.38389L0.917321 7.11627L0.572266 6.19436V5.3877L1.03234 4.00484L1.60743 3.42865Z" fill="#0178FF"/>
<path d="M16.1711 0.714294H16.8569L18.114 1.51985L19.3711 2.44048L21.314 3.4762L22.5711 3.93652L24.0569 4.16668H25.0854L26.914 4.0516L27.8283 4.39683L29.0854 5.31747L29.4283 5.66271V6.00795L26.914 6.35318L24.8569 6.92858L22.4569 8.07937L20.9711 9.00001L20.0569 8.65477L18.914 7.96429L17.6569 7.04366L16.3997 5.89287L15.5997 4.74207L15.1426 3.59128V2.44048L15.4854 1.51985L15.8283 0.944453L16.1711 0.714294Z" fill="#0178FF"/>
<path d="M45.0819 21.4286H45.4286L45.1974 21.9018L43.0017 23.4398L40.806 24.8594L38.7259 26.0424L36.0679 27.2255L33.0633 28.1719L30.0587 28.7634L27.9785 29H23.4715L20.4669 28.6451L17.3467 28.0536L17 27.9353V27.6987H18.6179L24.5116 28.0536H26.8229L30.2898 27.6987L32.601 27.2255L35.6057 26.2791L37.8014 25.3326L39.6504 24.3862L42.7706 22.7299L45.0819 21.4286Z" fill="white"/>
</svg>
