<svg width="159" height="51" viewBox="0 0 159 51" fill="none" xmlns="http://www.w3.org/2000/svg">
<path d="M12.2393 0H13.0262L13.7256 0.420553L15.2992 1.42988L16.698 2.10277L17.7471 2.43921L18.359 2.52332H19.1458L19.8452 2.43921H20.632L21.4189 2.69154L22.4679 3.36442L23.0799 4.03731L23.1673 4.28964L24.8284 4.37375L26.3146 4.62608L27.8882 5.13075L29.0247 5.71952L29.9864 6.39241L30.8606 7.1494L31.7349 8.24284L32.6091 9.5045L33.3085 10.5979L33.9205 11.5232L34.7073 12.7007L35.4067 13.71L35.8438 14.1306L37.1552 14.6352L37.6797 15.224V15.8969H38.4665L38.6414 15.981V23.551L38.5539 23.6351H32.784L33.833 23.9715L34.9696 24.5603L35.6689 25.2332L36.1935 26.2425L36.2809 26.579V28.3453L36.0186 29.1864L35.5815 30.0275L34.7947 30.8686L33.9205 31.5415L32.5217 32.2144L31.2103 32.6349L29.7241 32.9714L27.8882 33.2237L26.8391 33.3078H22.8176L20.7195 33.0555L19.9326 32.9714L19.6704 33.5601V34.233L19.9326 34.6536L20.4572 34.8218H23.1673L28.2379 34.5695H31.3852L32.8714 34.7377L34.445 35.0741L35.8438 35.5788L37.0677 36.3358L38.1168 37.3451L38.8162 38.5227L39.1659 39.532L39.4282 40.8778V43.1487L39.1659 44.4104L38.6414 45.6721L38.0294 46.5973L37.33 47.3543L36.5432 47.943L35.4067 48.6159L33.833 49.2888L31.9097 49.7935L29.9864 50.1299L29.1122 50.214H19.8452L18.1842 50.0458L16.086 49.7094L14.3375 49.2047L12.9387 48.5318L12.1519 47.943L11.6274 47.2702L11.2777 46.5973L11.1028 45.588L11.1903 44.4945L11.54 43.7375L11.8896 43.2329L12.589 42.56L13.7256 41.8871L14.8621 41.4665L15.9986 41.1301L17.3099 40.8778L16.4357 40.7095L15.1243 40.3731L14.2501 40.0367L13.4633 39.4479L12.9387 38.8591L12.589 38.018L12.5016 37.5974L12.589 36.4199L13.0262 35.4106L13.5507 34.7377L14.5124 33.9807L15.5615 33.476L16.9602 33.0555L18.7087 32.719L18.7961 32.6349L17.3099 32.1303L15.9986 31.4574L14.8621 30.6163L14.1627 29.9434L13.3759 28.7658L12.8513 27.6724L12.5016 26.2425L12.4142 25.4855V24.0556L12.589 22.8781L12.6765 22.7099L12.1519 22.6258L11.2777 22.1211L10.7531 21.5323L10.6657 21.3641V20.523L10.928 20.0183L11.1903 19.5978V18.6726L10.8406 17.8314L10.4034 16.5698L10.316 15.981V14.8876L10.5783 13.7941L10.6657 13.6259H9.8789L8.30527 13.2895L7.16876 12.8689L5.59513 12.0278L5.24543 11.6073L5.15801 11.439V10.3456L5.42028 9.92505L5.68255 9.75683L6.64422 9.84094L5.33286 9.33628L3.84665 8.66339L2.62272 7.9064L1.74848 7.23351L1.04909 6.56063L0.262272 5.38308L0 4.62608V3.78498L0.349696 2.85976L0.699391 2.3551L1.22393 2.01865H2.01075L2.53529 2.27099L3.75923 3.11209L5.15801 3.86909L6.11967 4.28964L6.81906 4.45786L8.043 4.54197L8.74239 4.45786H9.79148L11.0154 5.04664L11.8896 5.80363L12.5016 6.64474L13.201 7.9064L13.5507 8.41106L13.9004 8.24284L14.5998 7.56996L15.2118 7.06529H15.3866L15.1243 6.81296L13.813 6.05596L12.9387 5.38308L12.3268 4.87842L11.54 3.86909L11.1028 3.02798L11.0154 2.77565V1.76632L11.2777 0.925217L11.8022 0.252332L12.2393 0Z" fill="white"/>
<path d="M50.3563 15.3081H55.0772L56.7383 15.5604L58.2245 15.8969L60.0604 16.5698L61.3717 17.3268L62.5082 18.3361L63.3825 19.3454L63.9944 20.3547L64.6064 21.8687L65.0435 23.8874L65.131 25.2332V42.0553L65.0435 42.1394H55.4269L55.3395 42.0553L55.2521 35.9993L54.7275 37.6815L54.0281 39.0273L53.3287 40.0366L52.6293 40.7936L51.7551 41.4665L50.4437 42.1394L48.9575 42.5599L48.2581 42.6441H45.8103L44.4115 42.3917L43.275 41.9712L42.1385 41.3824L40.9145 40.3731L40.39 39.7002L39.8654 38.8591L39.3409 37.6815L38.9912 35.9152V33.7283L39.3409 32.0461L39.8654 30.8686L40.7397 29.691L41.7014 28.8499L43.1876 28.0088L45.0235 27.42L47.2091 27.0836L48.433 26.9995H55.3395L55.2521 25.2332L55.0772 24.4762L54.5527 23.7192L53.8533 23.2986L52.8042 23.0463H51.7551L50.8809 23.2145L50.1815 23.5509L49.7443 23.8874L49.2198 24.7285L48.8701 25.8219L47.2965 25.6537L42.7504 25.0649L40.2151 24.7285L39.778 24.5603L39.8654 23.7192L40.2151 22.2052L40.9145 20.523L41.7888 19.1772L42.9253 17.9996L44.1492 17.1585L45.1983 16.5698L46.5097 16.0651L48.1707 15.6445L49.6569 15.3922L50.3563 15.3081Z" fill="white"/>
<path d="M119.509 15.0557H120.907L123.268 15.308L125.104 15.7285L126.765 16.4014L127.901 17.0743L128.688 17.6631L129.65 18.5042L130.349 19.3453L130.961 20.2705L131.661 21.6163L132.185 23.0462L132.535 24.6443L132.71 26.3265V30.6161L132.622 30.9526H115.575L116.012 32.5507L116.449 33.3918L117.061 34.0647L118.11 34.5693L118.634 34.7375L119.334 34.8217H120.907L121.782 34.6534L122.569 34.317L123.181 33.8964L123.88 32.803L124.142 32.2983L125.016 32.4666L128.426 33.3918L132.36 34.4852L132.273 35.1581L131.748 36.5039L131.049 37.8496L130.174 39.0272L129.213 40.0365L128.164 40.8776L126.677 41.7187L125.366 42.2234L123.443 42.7281L122.219 42.8963L120.558 42.9804H119.421L117.848 42.8963L115.837 42.5598L114.875 42.3075L113.826 41.9711L112.253 41.2982L110.854 40.4571L109.892 39.616L109.193 39.0272L108.231 37.8496L107.532 36.6721L107.182 35.9992L106.745 34.9899L106.308 33.3918L106.045 31.9619L105.958 30.9526V28.5134L106.133 26.6629L106.57 24.5602L107.007 23.2144L107.532 21.9527L108.056 20.9434L109.018 19.5976L109.98 18.5883L111.029 17.6631L112.427 16.822L113.826 16.1491L115.05 15.7285L116.449 15.3921L118.372 15.1398L119.509 15.0557Z" fill="white"/>
<path d="M67.0547 15.897H76.5839L76.6713 15.9811L76.7588 31.6257L76.9336 32.5509L77.3707 33.392L77.7204 33.8125L78.245 34.149L79.0318 34.4013H80.7803L81.7419 34.0649L82.6162 33.3079L83.0533 32.2985L83.1407 31.7939L83.2281 15.9811L83.3156 15.897H92.8448L92.9322 15.9811V42.0554L92.8448 42.1395H83.3156L83.2281 42.0554L83.1407 35.2424L82.5287 37.3452L81.8293 38.8592L81.13 40.0367L80.0809 41.2143L79.0318 41.9713L77.7204 42.56L76.2342 42.8965L75.0977 42.9806H74.2235L72.7373 42.8124L71.2511 42.3918L69.9397 41.6348L69.0655 40.8778L68.1912 39.7003L67.5793 38.2704L67.2296 37.0928L66.9673 35.4106V15.9811L67.0547 15.897Z" fill="white"/>
<path d="M144.774 15.0557H146.347L148.533 15.2239L150.282 15.4762L152.117 15.9809L153.167 16.4014L154.565 17.1584L155.527 17.9154L156.401 18.8406L157.101 19.9341L157.45 20.607L157.887 21.7845L158.062 22.4574V22.9621L156.838 23.2985L150.456 24.6443L149.32 24.8966H148.795L148.533 23.8873L148.009 22.878L147.571 22.3733L146.522 21.8686L145.998 21.7845H144.949L144.074 21.9527L143.375 22.3733L143.113 22.878V23.4667L143.375 24.0555L144.074 24.5602L144.861 24.8966L146.347 25.3172L150.019 26.1583L152.292 26.8311L154.041 27.5881L155.09 28.1769L156.226 29.018L156.838 29.6068L157.45 30.4479L158.062 31.7096L158.325 32.8871L158.412 33.56V35.074L158.15 36.7562L157.8 37.7655L157.101 39.0272L156.314 39.9524L155.44 40.7094L154.303 41.3823L153.254 41.8869L151.68 42.3916L149.32 42.8122L148.533 42.8963L146.785 42.9804H145.298L143.463 42.8963L141.189 42.5598L139.528 42.1393L138.042 41.5505L136.731 40.7935L135.594 39.8683L134.895 39.1113L134.196 38.0179L133.671 36.9244L133.234 35.4945L133.146 34.9899V34.317L133.671 34.1488L136.906 33.56L139.004 33.1394L141.627 32.6348H142.151L142.676 33.9806L143.2 34.8217L143.55 35.2422L144.337 35.7469L145.124 35.9992L145.736 36.0833H146.959L147.834 35.9151L148.533 35.4945L148.708 35.1581V34.2329L148.358 33.7282L146.959 33.0553L144.774 32.4666L141.627 31.7096L139.791 31.1208L137.955 30.3638L136.731 29.6909L135.594 28.8498L134.808 28.0928L134.196 27.1676L133.671 25.99L133.409 24.7284V22.3733L133.671 21.0275L134.108 19.9341L134.808 18.7565L135.857 17.6631L137.081 16.822L138.479 16.1491L139.791 15.7285L141.277 15.3921L143.2 15.1398L144.774 15.0557Z" fill="white"/>
<path d="M94.9424 8.49536H104.559L104.646 8.57947V42.1396H94.9424L94.855 42.0555V8.57947L94.9424 8.49536Z" fill="white"/>
<path d="M19.932 40.8779H30.9475L31.6469 41.1303L31.9965 41.4667L32.084 41.719V42.5601L31.8217 42.9807L31.0349 43.4012L29.1116 43.7377L27.3631 43.8218H22.5548L20.7189 43.7377L19.4075 43.4854L18.7081 43.233L18.3584 42.8966L18.271 42.6443V41.8873L18.6207 41.3826L19.4949 40.962L19.932 40.8779Z" fill="#070808"/>
<path d="M119.42 22.7939H120.382L121.431 22.9622L122.48 23.4668L123.092 24.0556L123.617 25.149L123.792 26.0743V26.9154H115.574L115.661 26.2425L115.923 25.149L116.361 24.3079L117.147 23.4668L118.022 23.0463L118.634 22.8781L119.42 22.7939Z" fill="#070808"/>
<path d="M23.4293 23.3826H25.8772L27.1011 23.719L27.8005 24.2237L28.1502 24.8124L28.2376 25.233V25.9059L27.9753 26.5788L27.5382 27.0834L26.664 27.504L25.9646 27.6722L25.1778 27.7563H24.1287L22.9047 27.5881L21.8557 27.1675L21.2437 26.5788L21.0688 26.1582V24.9807L21.4185 24.3078L22.0305 23.8031L22.6425 23.5508L23.4293 23.3826Z" fill="#070808"/>
<path d="M50.6187 31.1208H55.3396V32.3825L55.1647 33.1395L54.6402 33.9806L54.0282 34.5694L53.154 34.9899L52.1049 35.2423H50.881L50.0067 35.074L49.1325 34.6535L48.6954 34.1488L48.5205 33.6442V32.719L48.7828 32.1302L49.1325 31.7096L49.657 31.3732L50.6187 31.1208Z" fill="#070808"/>
<path d="M12.2393 0H13.0262L13.7255 0.420553L15.2992 1.42988L16.698 2.10277L17.747 2.43921L18.359 2.52332H19.1458L19.8452 2.43921H20.632L21.4189 2.69154L22.4679 3.36443L23.0799 4.03731L23.1673 4.28964L24.8284 4.37375L26.3146 4.62608L27.8882 5.13075L29.0247 5.71952L29.9864 6.39241L30.8606 7.1494L31.7349 8.24284L32.6091 9.5045L33.3085 10.5979L33.9205 11.5232L34.7073 12.7007L35.4067 13.71L35.8438 14.1306L37.1552 14.6353L37.6797 15.224L37.7671 16.0651L37.4174 16.9062L36.6306 17.7473L35.9312 18.3361L35.057 18.9249L33.2211 19.9342L31.0355 20.9435L28.5002 21.8688L26.402 22.5416L25.0032 22.8781L22.1182 23.2145L20.8069 23.2986L17.5722 23.3828L15.474 23.2986L14.0752 23.1304L12.7639 22.8781L11.3651 22.2052L10.7531 21.5323L10.6657 21.3641V20.523L10.928 20.0183L11.1903 19.5978V18.6726L10.8406 17.8315L10.4034 16.5698L10.316 15.981V14.8876L10.5783 13.7941L10.6657 13.6259H9.8789L8.30527 13.2895L7.16876 12.8689L5.59513 12.0278L5.24543 11.6073L5.15801 11.439V10.3456L5.42028 9.92505L5.68255 9.75683L6.64422 9.84094L5.33286 9.33628L3.84665 8.66339L2.62272 7.9064L1.74848 7.23351L1.04909 6.56063L0.262272 5.38308L0 4.62608V3.78498L0.349696 2.85976L0.699391 2.3551L1.22393 2.01866H2.01075L2.53529 2.27099L3.75923 3.11209L5.15801 3.86909L6.11967 4.28964L6.81906 4.45786L8.043 4.54197L8.74239 4.45786H9.79148L11.0154 5.04664L11.8896 5.80363L12.5016 6.64474L13.201 7.9064L13.5507 8.41106L13.9004 8.24284L14.5998 7.56996L15.2118 7.06529H15.3866L15.1243 6.81296L13.813 6.05597L12.9387 5.38308L12.3268 4.87842L11.54 3.86909L11.1028 3.02798L11.0154 2.77565V1.76632L11.2777 0.925217L11.8022 0.252332L12.2393 0ZM22.7302 5.21486L21.1566 5.38308L19.583 5.71952L18.0093 6.39241L16.698 7.1494L15.474 8.07462L14.6872 8.74751L14.2501 9.33628L14.9495 10.1774L15.9986 11.1026L17.1351 11.7755L17.8345 12.1119L18.0093 12.4484L18.0967 13.1213L17.9219 13.71L17.5722 13.9624L17.1351 14.0465L16.3483 13.9624L15.6489 14.8876L14.8621 15.5605H14.1627L13.9004 15.3922L13.7255 14.7194L12.7639 15.0558L12.2393 15.1399H11.2777V16.1492L11.8022 17.6632L12.1519 18.5043V19.766L11.8022 20.4389L11.6274 20.6912V21.1959L12.0645 21.5323L12.8513 21.8688L14.2501 22.2052L16.086 22.3734H19.9326L22.8176 22.2052L25.4403 21.7847L27.014 21.3641L29.4618 20.523L31.4726 19.6819L32.9588 19.009L34.6199 18.0838L35.7564 17.2427L36.4558 16.5698L36.8055 15.981L36.718 15.4764L35.4067 14.9717L34.7073 14.3829L33.5708 12.7007L32.5217 11.1026L31.9097 10.1774L30.8606 8.66339L30.1612 7.82229L29.3744 7.06529L28.1505 6.3083L27.2763 5.88774L25.8775 5.46719L25.0032 5.29897L24.0416 5.21486H22.7302Z" fill="#070808"/>
<path d="M1.31123 2.52332H1.9232L3.58425 3.61675L4.98303 4.37375L6.38181 4.87841L7.51832 5.04663L8.74226 4.96252H9.70392L10.5782 5.38308L11.6272 6.30829L12.1518 7.1494L13.026 8.57928L14.0751 9.92505L15.0368 10.9344L16.2607 11.8596L17.3972 12.4484L17.5721 12.6166V13.2895L17.3972 13.5418L16.2607 13.4577L15.8236 13.8782L15.1242 14.7194L14.5997 15.1399H14.3374L14.4248 14.6352L14.7745 13.9624V13.4577L14.3374 13.5418L13.638 14.1306L12.7638 14.5511L11.8021 14.7194L11.6272 14.3829L12.2392 13.71L12.7638 13.0371L12.6763 12.5325L12.0644 12.6166L11.4524 12.953L10.5782 13.1213L9.00453 12.953L7.51832 12.4484L6.03212 11.6914L5.68242 11.3549V10.4297L6.03212 10.2615L7.16863 10.5138H8.39256L8.47999 10.0092L8.39256 9.84094L6.29439 9.16805L4.54591 8.41106L3.32198 7.73817L2.27289 6.98118L1.39865 6.14007L0.786686 5.21486L0.524414 4.54197V3.9532L0.87411 2.94387L1.31123 2.52332Z" fill="white"/>
<path d="M12.3269 0.504761H12.8514L13.8131 1.09353L14.7747 1.76642L16.2609 2.52342L17.2226 2.85986L18.3591 3.02808H19.1459L20.5447 2.94397L21.2441 3.1963L22.2058 3.86918L22.468 4.12152V4.37385L20.5447 4.62618L18.9711 5.04673L17.1352 5.88784L15.9987 6.56072L15.2993 6.30839L14.425 5.80373L13.4634 5.13084L12.5017 4.28974L11.8897 3.44863L11.54 2.60753V1.76642L11.8023 1.09353L12.0646 0.672982L12.3269 0.504761Z" fill="white"/>
<path d="M34.2699 15.7284H34.5322L34.3573 16.0648L32.6963 17.1583L31.0352 18.1676L29.4616 19.0087L27.4508 19.8498L25.1778 20.5227L22.9048 20.9433L21.3311 21.1115H17.9216L15.6486 20.8591L13.2882 20.4386L13.0259 20.3545V20.1863H14.2498L18.7084 20.4386H20.4569L23.0796 20.1863L24.8281 19.8498L27.1011 19.1769L28.7622 18.504L30.161 17.8312L32.5214 16.6536L34.2699 15.7284Z" fill="#070808"/>
</svg>
